<?xml version="1.0" encoding="UTF-8"?>
<svg version="1.1" xmlns="http://www.w3.org/2000/svg" width="60" height="60">
<path d="M0 0 C5.75366247 1.59751802 11.39590811 3.43664692 17 5.5 C18.093125 5.9021875 19.18625 6.304375 20.3125 6.71875 C23 8 23 8 25 11 C25.23046875 13.0859375 25.23046875 13.0859375 25.1875 15.375 C25.17589844 16.17035156 25.16429687 16.96570313 25.15234375 17.78515625 C25 20 25 20 24.25 22.8125 C23.72357811 25.16693145 23.72357811 25.16693145 25.6875 27.1875 C27.74716168 28.80182943 29.60355546 29.97295234 32 31 C28.00543153 35.45109059 25.80335858 36.71875152 19.92993164 37.15307617 C17.49397877 37.27899887 15.06378361 37.33347272 12.625 37.375 C11.3875 37.43107422 11.3875 37.43107422 10.125 37.48828125 C3.80755512 37.57853046 0.79814026 36.09975866 -4 32 C-4.66 32.66 -5.32 33.32 -6 34 C-8.625 33.625 -8.625 33.625 -11 33 C-11 31.02 -11 29.04 -11 27 C-12.65 26.67 -14.3 26.34 -16 26 C-17.125 21.25 -17.125 21.25 -16 19 C-13.36 19 -10.72 19 -8 19 C-8.33 18.34 -8.66 17.68 -9 17 C-9.23076923 11.46153846 -9.23076923 11.46153846 -8 9 C-7.34 9 -6.68 9 -6 9 C-6 8.34 -6 7.68 -6 7 C-3.36 6.67 -0.72 6.34 2 6 C1.34 4.02 0.68 2.04 0 0 Z " fill="#FCFCFC" transform="translate(22,11)"/>
<path d="M0 0 C2.10494301 0.08708038 4.20902142 0.19525693 6.3125 0.3125 C8.07013672 0.39951172 8.07013672 0.39951172 9.86328125 0.48828125 C13 1 13 1 14.91796875 2.29296875 C16 4 16 4 16 8 C15.01 8.495 15.01 8.495 14 9 C13.566875 9.825 13.13375 10.65 12.6875 11.5 C11 14 11 14 8.375 14.875 C7.59125 14.91625 6.8075 14.9575 6 15 C5 14 5 14 4.9375 10.9375 C4.958125 9.968125 4.97875 8.99875 5 8 C3.35 7.67 1.7 7.34 0 7 C-1.125 2.25 -1.125 2.25 0 0 Z " fill="#FEC810" transform="translate(6,30)"/>
</svg>
